<?xml version="1.0" encoding="UTF-8" standalone="no" ?>
<!DOCTYPE svg PUBLIC "-//W3C//DTD SVG 1.1//EN" "http://www.w3.org/Graphics/SVG/1.1/DTD/svg11.dtd">
<svg xmlns="http://www.w3.org/2000/svg" xmlns:xlink="http://www.w3.org/1999/xlink" version="1.1" width="1280" height="1024" viewBox="0 0 1280 1024" xml:space="preserve">
<desc>Created with Fabric.js 5.3.0</desc>
<defs>
</defs>
<g transform="matrix(1 0 0 1 640 512)" id="background-logo"  >
<rect style="stroke: none; stroke-width: 0; stroke-dasharray: none; stroke-linecap: butt; stroke-dashoffset: 0; stroke-linejoin: miter; stroke-miterlimit: 4; fill: rgb(255,255,255); fill-opacity: 0; fill-rule: nonzero; opacity: 1;"  paint-order="stroke"  x="-640" y="-512" rx="0" ry="0" width="1280" height="1024" />
</g>
<g transform="matrix(1.1455785613609333 0 0 1.1455785613609333 210.89315624484402 511.91758785678934)" id="logo-logo"  >
<g style=""  paint-order="stroke"   >
		<g transform="matrix(1.1617720654991683 0 0 1.1617720654991686 0 0)"  >
<g style=""  paint-order="stroke"   >
		<g transform="matrix(1 0 0 1 0.00001009372070370773 0.0021405151812103895)"  >
<path style="stroke: none; stroke-width: 1; stroke-dasharray: none; stroke-linecap: butt; stroke-dashoffset: 0; stroke-linejoin: miter; stroke-miterlimit: 4; fill: rgb(26,112,235); fill-rule: nonzero; opacity: 1;"  paint-order="stroke"  transform=" translate(-75.0000100937207, -100.00214051518124)" d="M 75 12 C 38.86866244136247 12.104355051215784 9.604355051215691 41.36866244136255 9.499999999999986 77.50000000000009 L 9.5 122.5 C 9.466650151907835 148.99578941957768 25.41835225533752 172.8953272084026 49.899806067324946 183.02875646164648 C 74.38125987931237 193.16218571489037 102.55754750208057 187.52822420321218 121.26 168.76 C 133.5972441370179 156.5304970148181 140.52590493671838 139.8714612251016 140.5 122.5 L 140.5 77.5 C 140.39564494878425 41.36866244136247 111.13133755863751 12.10435505121572 74.99999999999997 11.999999999999986 Z" stroke-linecap="round" />
</g>
		<g transform="matrix(1 0 0 1 0 0)"  >
<path style="stroke: none; stroke-width: 1; stroke-dasharray: none; stroke-linecap: butt; stroke-dashoffset: 0; stroke-linejoin: miter; stroke-miterlimit: 4; fill: rgb(26,112,235); fill-rule: nonzero; opacity: 1;"  paint-order="stroke"  transform=" translate(-75, -100)" d="M 77.8 0 L 72.2 0 C 32.372913489098394 0.1153380779692817 0.11533807796926965 32.37291348909841 0 72.20000000000002 L 0 127.80000000000001 C 0.11533807796927927 167.62708651090162 32.37291348909841 199.88466192203072 72.20000000000002 200 L 77.8 200 C 117.6270865109016 199.88466192203072 149.88466192203072 167.6270865109016 150 127.79999999999998 L 150 72.2 C 149.88466192203072 32.372913489098394 117.62708651090159 0.11533807796926965 77.79999999999998 0 Z M 142.5 122.5 C 142.5 159.77922061357856 112.27922061357856 190 75 190 C 37.72077938642144 190 7.5 159.77922061357856 7.5 122.5 L 7.5 77.5 C 7.5 40.22077938642144 37.72077938642144 10 75 10 C 112.27922061357856 10 142.5 40.22077938642143 142.5 77.49999999999999 Z" stroke-linecap="round" />
</g>
</g>
</g>
		<g transform="matrix(0.7536285413812946 0 0 0.7536285413812948 -1.3639758553870251 -0.8702881521967925)"  >
<g style=""  paint-order="stroke"   >
		<g transform="matrix(1 0 0 1 0.00001009372070370773 0.0021405151812103895)"  >
<path style="stroke: none; stroke-width: 1; stroke-dasharray: none; stroke-linecap: butt; stroke-dashoffset: 0; stroke-linejoin: miter; stroke-miterlimit: 4; fill: rgb(255,255,255); fill-rule: nonzero; opacity: 1;"  paint-order="stroke"  transform=" translate(-75.0000100937207, -100.00214051518124)" d="M 75 12 C 38.86866244136247 12.104355051215784 9.604355051215691 41.36866244136255 9.499999999999986 77.50000000000009 L 9.5 122.5 C 9.466650151907835 148.99578941957768 25.41835225533752 172.8953272084026 49.899806067324946 183.02875646164648 C 74.38125987931237 193.16218571489037 102.55754750208057 187.52822420321218 121.26 168.76 C 133.5972441370179 156.5304970148181 140.52590493671838 139.8714612251016 140.5 122.5 L 140.5 77.5 C 140.39564494878425 41.36866244136247 111.13133755863751 12.10435505121572 74.99999999999997 11.999999999999986 Z" stroke-linecap="round" />
</g>
		<g transform="matrix(1 0 0 1 0 0)"  >
<path style="stroke: none; stroke-width: 1; stroke-dasharray: none; stroke-linecap: butt; stroke-dashoffset: 0; stroke-linejoin: miter; stroke-miterlimit: 4; fill: rgb(255,255,255); fill-rule: nonzero; opacity: 1;"  paint-order="stroke"  transform=" translate(-75, -100)" d="M 77.8 0 L 72.2 0 C 32.372913489098394 0.1153380779692817 0.11533807796926965 32.37291348909841 0 72.20000000000002 L 0 127.80000000000001 C 0.11533807796927927 167.62708651090162 32.37291348909841 199.88466192203072 72.20000000000002 200 L 77.8 200 C 117.6270865109016 199.88466192203072 149.88466192203072 167.6270865109016 150 127.79999999999998 L 150 72.2 C 149.88466192203072 32.372913489098394 117.62708651090159 0.11533807796926965 77.79999999999998 0 Z M 142.5 122.5 C 142.5 159.77922061357856 112.27922061357856 190 75 190 C 37.72077938642144 190 7.5 159.77922061357856 7.5 122.5 L 7.5 77.5 C 7.5 40.22077938642144 37.72077938642144 10 75 10 C 112.27922061357856 10 142.5 40.22077938642143 142.5 77.49999999999999 Z" stroke-linecap="round" />
</g>
</g>
</g>
</g>
</g>
<g transform="matrix(1.9211538461538462 0 0 1.9211538461538462 732.6425408269182 519.4278624860367)" id="text-logo"  >
<g style=""  paint-order="stroke"   >
		<g transform="matrix(1 0 0 1 0 0)" id="text-logo-path-0"  >
<path style="stroke: none; stroke-width: 1.0106382978723396; stroke-dasharray: none; stroke-linecap: butt; stroke-dashoffset: 0; stroke-linejoin: miter; stroke-miterlimit: 4; fill: rgb(26,112,235); fill-rule: nonzero; opacity: 1;"  paint-order="stroke"  transform=" translate(-205.78000000000003, 33.25)" d="M 14.72 0 L 14.72 -20.71 L 17.96 -25.65 L 34.58 0 L 48.26 0 L 27.27 -32.3 L 22.23 -32.3 L 44.46 -66.5 L 30.78 -66.5 L 14.72 -41.7 L 14.72 -66.5 L 3.33 -66.5 L 3.33 0 Z M 86.23 0 L 86.23 -40.09 L 99.15 -5.7 L 112.26 -5.7 L 125.18 -40.09 L 125.18 0 L 136.58 0 L 136.58 -66.5 L 122.9 -66.5 L 105.7 -20.71 L 88.51 -66.5 L 74.83 -66.5 L 74.83 0 Z M 174.54 0 L 174.54 -66.5 L 163.14 -66.5 L 163.14 0 Z M 243.86 -11.4 L 234.36 -11.4 C 221.53 -11.4 212.51 -20.43 212.51 -33.34 C 212.51 -46.08 221.53 -55.1 234.36 -55.1 L 243.86 -55.1 L 243.86 -66.5 L 234.36 -66.5 C 216.02 -66.5 201.11 -51.59 201.11 -33.34 C 201.11 -14.92 216.02 0 234.36 0 L 243.86 0 Z M 281.82 0 L 281.82 -27.55 L 294.84 -27.55 L 304.91 0 L 317.07 0 L 305.95 -30.3 C 311.56 -33.73 315.36 -39.99 315.36 -47.02 C 315.36 -57.76 306.62 -66.5 295.88 -66.5 L 270.42 -66.5 L 270.42 0 Z M 295.88 -38.95 L 281.82 -38.95 L 281.82 -55.1 L 295.88 -55.1 C 301.11 -55.1 303.96 -52.25 303.96 -47.02 C 303.96 -41.8 301.11 -38.95 295.88 -38.95 Z M 374.51 -10.93 C 361.3 -10.93 352.18 -20.14 352.18 -33.34 C 352.18 -46.36 361.3 -55.58 374.51 -55.58 C 387.62 -55.58 396.83 -46.36 396.83 -33.34 C 396.83 -20.14 387.62 -10.93 374.51 -10.93 Z M 340.78 -33.34 C 340.78 -14.63 355.79 0.47 374.51 0.47 C 393.13 0.47 408.23 -14.63 408.23 -33.34 C 408.23 -51.87 393.13 -66.97 374.51 -66.97 C 355.79 -66.97 340.78 -51.87 340.78 -33.34 Z" stroke-linecap="round" />
</g>
</g>
</g>
<g transform="matrix(1 0 0 1 184.12700303552666 322.35392560725137)" id="tagline-5df9bc40-5e19-438c-8e4d-cfaf3c69a136-logo"  >
<g style=""  paint-order="stroke"   >
		<g transform="matrix(1 0 0 1 0 0)" id="tagline-5df9bc40-5e19-438c-8e4d-cfaf3c69a136-logo-path-0"  >
<path style="stroke: none; stroke-width: 0; stroke-dasharray: none; stroke-linecap: butt; stroke-dashoffset: 0; stroke-linejoin: miter; stroke-miterlimit: 4; fill: rgb(13,188,186); fill-rule: nonzero; opacity: 1;"  paint-order="stroke"  transform=" translate(0, 0)" d="" stroke-linecap="round" />
</g>
</g>
</g>
<g transform="matrix(1.9211538461538462 0 0 1.9211538461538462 210.78393138917903 509.10240133681975)" id="tagline-0052b8df-a168-471b-a0de-25d4ba1f2a12-logo"  >
<g style=""  paint-order="stroke"   >
		<g transform="matrix(1 0 0 1 0 0)" id="tagline-0052b8df-a168-471b-a0de-25d4ba1f2a12-logo-path-0"  >
<filter id="SVGID_83855" y="-27.805804102069615%" height="155.61160820413923%" x="-33.86650396379739%" width="167.73300792759477%" >
	<feGaussianBlur in="SourceAlpha" stdDeviation="0.2677390807009878"></feGaussianBlur>
	<feOffset dx="2.67739080700988" dy="2.1419126456079023" result="oBlur" ></feOffset>
	<feFlood flood-color="rgb(210,217,208)" flood-opacity="1"/>
	<feComposite in2="oBlur" operator="in" />
	<feMerge>
		<feMergeNode></feMergeNode>
		<feMergeNode in="SourceGraphic"></feMergeNode>
	</feMerge>
</filter>
<path style="stroke: rgb(255,255,255); stroke-width: 2.6700554897303994; stroke-dasharray: none; stroke-linecap: butt; stroke-dashoffset: 0; stroke-linejoin: miter; stroke-miterlimit: 4; fill: rgb(49,126,255); fill-rule: nonzero; opacity: 1;filter: url(#SVGID_83855);"  paint-order="stroke"  transform=" translate(-13.305000000000001, 17.15)" d="M 7.6 0 L 7.6 -10.68 L 9.26 -13.23 L 17.84 0 L 24.89 0 L 14.06 -16.66 L 11.47 -16.66 L 22.93 -34.3 L 15.88 -34.3 L 7.6 -21.51 L 7.6 -34.3 L 1.72 -34.3 L 1.72 0 Z" stroke-linecap="round" />
</g>
</g>
</g>
</svg>